# xmcd
#
# Track frame offsets:
#	150
#	16909
#	33929
#	52740
#	66143
#	84154
#	96617
#	116509
#	133645
#	152528
#	169287
#	183400
#	200118
#	213453
#
# Disc length: 3103 seconds
#
# Revision: 0
# Processed by: cddbd v1.5.2PL0 Copyright (c) Steve Scherf et al.
# Submitted via: SynApp - FreeCDDB Version: 2.5
#
DISCID=ba0c1d0e
DTITLE=Brooks and Dunn - Red Dirt Road
DYEAR=2002
DGENRE=Country
TTITLE0=Brooks and Dunn - You Can't Take The Honky Tonk
TTITLE1=Brooks and Dunn - Caroline
TTITLE2=Brooks and Dunn - When We Were Kings
TTITLE3=Brooks and Dunn - That's What She Gets For Lovin
TTITLE4=Brooks And Dunn - Red Dirt Road
TTITLE5=Brooks and Dunn - Feels Good Don't It
TTITLE6=Brooks and Dunn - I Used To Know This Song By He
TTITLE7=Brooks and Dunn - Believer
TTITLE8=Brooks and Dunn - Memory Town
TTITLE9=Brooks and Dunn - She Was Born To Run
TTITLE10=Brooks and Dunn - Till My Dyin' Day
TTITLE11=Brooks and Dunn - My Baby's Everything I Love
TTITLE12=Brooks and Dunn - Good Day To Be Me
TTITLE13=Brooks and Dunn - Good Cowboy
EXTD=
EXTT0=
EXTT1=
EXTT2=
EXTT3=
EXTT4=
EXTT5=
EXTT6=
EXTT7=
EXTT8=
EXTT9=
EXTT10=
EXTT11=
EXTT12=
EXTT13=
PLAYORDER=
